<?xml version="1.0"?>
<svg xmlns="http://www.w3.org/2000/svg" xmlns:xlink="http://www.w3.org/1999/xlink" xmlns:svgjs="http://svgjs.com/svgjs" version="1.1" width="512" height="512" x="0" y="0" viewBox="0 0 480.003 480.003" style="enable-background:new 0 0 512 512" xml:space="preserve" class=""><g>
<path xmlns="http://www.w3.org/2000/svg" style="" d="M72,40.001H40v32H8v208h400v-32h32v-32h32v-208H72V40.001z M376,208.001c-22.088,0-40,17.912-40,40  H80c0-22.088-17.912-40-40-40v-64c22.088,0,40-17.912,40-40h256c0,22.088,17.912,40,40,40V208.001z" fill="#138ee9" data-original="#ededed" class=""/>
<path xmlns="http://www.w3.org/2000/svg" style="" d="M336,104.001H80c0,22.088-17.912,40-40,40v64c22.088,0,40,17.912,40,40h256c0-22.088,17.912-40,40-40  v-64C353.912,144.001,336,126.089,336,104.001z M208,208.001c-17.672,0-32-14.328-32-32s14.328-32,32-32s32,14.328,32,32  S225.672,208.001,208,208.001z" fill="#ffffff" data-original="#12addd" class=""/>
<circle xmlns="http://www.w3.org/2000/svg" style="" cx="208" cy="176.001" r="32" fill="#138ee9" data-original="#ededed" class=""/>
<g xmlns="http://www.w3.org/2000/svg">
	<polygon style="" points="376,360.001 240,360.001 240,424.001 376,424.001 376,472.001 472,392.001 376,320.001  " fill="#ffffff" data-original="#12addd" class=""/>
	<rect x="176" y="360.001" style="" width="32" height="64" fill="#ffffff" data-original="#12addd" class=""/>
	<rect x="96" y="360.001" style="" width="32" height="64" fill="#ffffff" data-original="#12addd" class=""/>
	<rect x="8" y="360.001" style="" width="32" height="64" fill="#ffffff" data-original="#12addd" class=""/>
</g>
<g xmlns="http://www.w3.org/2000/svg">
	<path style="" d="M376,136.001c-17.648,0-32-14.352-32-32c0-4.424-3.576-8-8-8H80c-4.424,0-8,3.576-8,8   c0,17.648-14.352,32-32,32c-4.424,0-8,3.576-8,8v64c0,4.424,3.576,8,8,8c17.648,0,32,14.352,32,32c0,4.424,3.576,8,8,8h256   c4.424,0,8-3.576,8-8c0-17.648,14.352-32,32-32c4.424,0,8-3.576,8-8v-64C384,139.577,380.424,136.001,376,136.001z M368,200.665   c-20.072,3.384-35.952,19.264-39.336,39.336H87.336C83.952,219.929,68.072,204.049,48,200.665v-49.328   c20.072-3.384,35.952-19.264,39.336-39.336h241.328c3.384,20.072,19.264,35.952,39.336,39.336V200.665z" fill="#132838" data-original="#2d2d2d" class=""/>
	<path style="" d="M208,136.001c-22.056,0-40,17.944-40,40s17.944,40,40,40s40-17.944,40-40   S230.056,136.001,208,136.001z M208,200.001c-13.232,0-24-10.768-24-24s10.768-24,24-24s24,10.768,24,24   S221.232,200.001,208,200.001z" fill="#132838" data-original="#2d2d2d" class=""/>
	<path style="" d="M472,0.001H72c-4.424,0-8,3.576-8,8v24H40c-4.424,0-8,3.576-8,8v24H8c-4.424,0-8,3.576-8,8v208   c0,4.424,3.576,8,8,8h400c4.424,0,8-3.576,8-8v-24h24c4.424,0,8-3.576,8-8v-24h24c4.424,0,8-3.576,8-8v-208   C480,3.577,476.424,0.001,472,0.001z M400,272.001H16v-192h24h360v168V272.001z M432,240.001h-16v-168c0-4.424-3.576-8-8-8H48v-16   h384V240.001z M464,208.001h-16v-168c0-4.424-3.576-8-8-8H80v-16h384V208.001z" fill="#132838" data-original="#2d2d2d" class=""/>
	<path style="" d="M380.8,313.601c-2.416-1.832-5.672-2.112-8.376-0.76c-2.712,1.36-4.424,4.128-4.424,7.16v32H240   c-4.424,0-8,3.576-8,8v64c0,4.424,3.576,8,8,8h128v40c0,3.104,1.8,5.928,4.608,7.24c1.08,0.512,2.232,0.76,3.392,0.76   c1.832,0,3.656-0.632,5.128-1.848l96-80c1.872-1.568,2.936-3.904,2.872-6.352s-1.24-4.728-3.2-6.192L380.8,313.601z M384,454.921   v-30.92c0-4.424-3.576-8-8-8H248v-48h128c4.424,0,8-3.576,8-8v-24l75.112,56.328L384,454.921z" fill="#132838" data-original="#2d2d2d" class=""/>
	<path style="" d="M208,352.001h-32c-4.424,0-8,3.576-8,8v64c0,4.424,3.576,8,8,8h32c4.424,0,8-3.576,8-8v-64   C216,355.577,212.424,352.001,208,352.001z M200,416.001h-16v-48h16V416.001z" fill="#132838" data-original="#2d2d2d" class=""/>
	<path style="" d="M128,432.001c4.424,0,8-3.576,8-8v-64c0-4.424-3.576-8-8-8H96c-4.424,0-8,3.576-8,8v64   c0,4.424,3.576,8,8,8H128z M104,368.001h16v48h-16V368.001z" fill="#132838" data-original="#2d2d2d" class=""/>
	<path style="" d="M8,432.001h32c4.424,0,8-3.576,8-8v-64c0-4.424-3.576-8-8-8H8c-4.424,0-8,3.576-8,8v64   C0,428.425,3.576,432.001,8,432.001z M16,368.001h16v48H16V368.001z" fill="#132838" data-original="#2d2d2d" class=""/>
</g>
<g xmlns="http://www.w3.org/2000/svg">
</g>
<g xmlns="http://www.w3.org/2000/svg">
</g>
<g xmlns="http://www.w3.org/2000/svg">
</g>
<g xmlns="http://www.w3.org/2000/svg">
</g>
<g xmlns="http://www.w3.org/2000/svg">
</g>
<g xmlns="http://www.w3.org/2000/svg">
</g>
<g xmlns="http://www.w3.org/2000/svg">
</g>
<g xmlns="http://www.w3.org/2000/svg">
</g>
<g xmlns="http://www.w3.org/2000/svg">
</g>
<g xmlns="http://www.w3.org/2000/svg">
</g>
<g xmlns="http://www.w3.org/2000/svg">
</g>
<g xmlns="http://www.w3.org/2000/svg">
</g>
<g xmlns="http://www.w3.org/2000/svg">
</g>
<g xmlns="http://www.w3.org/2000/svg">
</g>
<g xmlns="http://www.w3.org/2000/svg">
</g>
</g></svg>
