<?xml version="1.0"?>
<svg xmlns="http://www.w3.org/2000/svg" xmlns:xlink="http://www.w3.org/1999/xlink" xmlns:svgjs="http://svgjs.com/svgjs" version="1.1" width="512" height="512" x="0" y="0" viewBox="0 0 512 512" style="enable-background:new 0 0 512 512" xml:space="preserve" class=""><g>
<path xmlns="http://www.w3.org/2000/svg" style="" d="M464,160.003h-16v-48c0-8.864-7.168-16-16-16H48c-26.464,0-48,21.536-48,48v288  c0,26.464,21.536,48,48,48h416c8.832,0,16-7.168,16-16v-288C480,167.139,472.832,160.003,464,160.003z" fill="#138ee9" data-original="#2196f3" class=""/>
<path xmlns="http://www.w3.org/2000/svg" style="" d="M48,128.003h368v32H48c-8.832,0-16-7.168-16-16S39.168,128.003,48,128.003z" fill="#fafafa" data-original="#fafafa" class=""/>
<path xmlns="http://www.w3.org/2000/svg" style="" d="M496,352.003h-96c-26.496,0-48-21.504-48-48l0,0c0-26.528,21.504-48,48-48h96c8.832,0,16,7.168,16,16  v64C512,344.835,504.832,352.003,496,352.003z" fill="#1976d2" data-original="#1976d2" class=""/>
<path xmlns="http://www.w3.org/2000/svg" style="" d="M409.888,160.003L350.304,40.835c-3.968-7.904-13.568-11.072-21.472-7.168L76.224,160.003H409.888z" fill="#4caf50" data-original="#4caf50" class=""/>
<path xmlns="http://www.w3.org/2000/svg" style="" d="M32,160.003h313.888L286.304,40.835c-3.968-7.904-13.568-11.072-21.472-7.136L32,150.115V160.003z" fill="#81c784" data-original="#81c784" class=""/>
<g xmlns="http://www.w3.org/2000/svg">
</g>
<g xmlns="http://www.w3.org/2000/svg">
</g>
<g xmlns="http://www.w3.org/2000/svg">
</g>
<g xmlns="http://www.w3.org/2000/svg">
</g>
<g xmlns="http://www.w3.org/2000/svg">
</g>
<g xmlns="http://www.w3.org/2000/svg">
</g>
<g xmlns="http://www.w3.org/2000/svg">
</g>
<g xmlns="http://www.w3.org/2000/svg">
</g>
<g xmlns="http://www.w3.org/2000/svg">
</g>
<g xmlns="http://www.w3.org/2000/svg">
</g>
<g xmlns="http://www.w3.org/2000/svg">
</g>
<g xmlns="http://www.w3.org/2000/svg">
</g>
<g xmlns="http://www.w3.org/2000/svg">
</g>
<g xmlns="http://www.w3.org/2000/svg">
</g>
<g xmlns="http://www.w3.org/2000/svg">
</g>
</g></svg>
